0
SECTION
2
HEADER
9
$INSUNITS
70
4
9
$ACADVER
1
AC1014
9
$HANDSEED
5
FFFF
0
ENDSEC
0
SECTION
2
TABLES
0
TABLE
2
VPORT
5
8
100
AcDbSymbolTable
0
ENDTAB
0
TABLE
2
LTYPE
5
5
100
AcDbSymbolTable
0
LTYPE
5
14
100
AcDbSymbolTableRecord
100
AcDbLinetypeTableRecord
2
BYBLOCK
70
0
0
LTYPE
5
15
100
AcDbSymbolTableRecord
100
AcDbLinetypeTableRecord
2
BYLAYER
70
0
0
ENDTAB
0
TABLE
2
LAYER
5
2
100
AcDbSymbolTable
70
2
0
LAYER
5
50
100
AcDbSymbolTableRecord
100
AcDbLayerTableRecord
2
0
70
0
6
CONTINUOUS
0
ENDTAB
0
TABLE
2
STYLE
5
3
100
AcDbSymbolTable
70
1
0
STYLE
5
11
100
AcDbSymbolTableRecord
100
AcDbTextStyleTableRecord
2
STANDARD
70
0
0
ENDTAB
0
TABLE
2
VIEW
5
6
100
AcDbSymbolTable
70
0
0
ENDTAB
0
TABLE
2
UCS
5
7
100
AcDbSymbolTable
70
0
0
ENDTAB
0
TABLE
2
APPID
5
9
100
AcDbSymbolTable
70
2
0
APPID
5
12
100
AcDbSymbolTableRecord
100
AcDbRegAppTableRecord
2
ACAD
70
0
0
ENDTAB
0
TABLE
2
DIMSTYLE
5
A
100
AcDbSymbolTable
70
1
0
ENDTAB
0
TABLE
2
BLOCK_RECORD
5
1
100
AcDbSymbolTable
70
1
0
BLOCK_RECORD
5
1F
100
AcDbSymbolTableRecord
100
AcDbBlockTableRecord
2
*MODEL_SPACE
0
BLOCK_RECORD
5
1B
100
AcDbSymbolTableRecord
100
AcDbBlockTableRecord
2
*PAPER_SPACE
0
ENDTAB
0
ENDSEC
0
SECTION
2
BLOCKS
0
BLOCK
5
20
100
AcDbEntity
100
AcDbBlockBegin
2
*MODEL_SPACE
0
ENDBLK
5
21
100
AcDbEntity
100
AcDbBlockEnd
0
BLOCK
5
1C
100
AcDbEntity
100
AcDbBlockBegin
2
*PAPER_SPACE
0
ENDBLK
5
1D
100
AcDbEntity
100
AcDbBlockEnd
0
ENDSEC
0
SECTION
2
ENTITIES
0
LWPOLYLINE
5
100
100
AcDbEntity
8
0
100
AcDbPolyline
90
51
70
1
43
0.0
10
52.660731721632821
20
0.25858725617842748
10
52.862155258838484
20
-2.5971028977108475
42
-0.40928717539850057
10
49.493801166303413
20
-6.5433526799857136
10
34.412612756899271
20
-7.8627856983069435
42
0.41421356237309703
10
32.321823159607838
20
-10.35449171223754
10
33.122511100970783
20
-19.506396760207711
42
-0.41421356237309553
10
29.759066966197601
20
-23.514793391313461
10
14.162999475157335
20
-24.879272492364461
42
0.36083556735842182
10
12.074572243015387
20
-26.94468088502186
42
-0.37072985020892196
10
8.586095224719628
20
-30.27630328190579
10
-6.3933477965990058
20
-31.061342625549887
42
-0.41421356237308971
10
-10.281920113289802
20
-27.56005638505691
10
-10.447380073502313
20
-24.40289226789676
42
0.41343154633656864
10
-12.85846607118561
20
-22.226103748734488
10
-25.879347970092166
20
-22.873633567934888
42
-0.41421356237311951
10
-29.758555517568183
20
-19.361974586255805
10
-29.833374328163931
20
-17.857477236947055
42
0.40810166234005274
10
-32.196713141420929
20
-15.672667561398532
10
-45.516055523985948
20
-16.056061966718076
42
-0.41421356237320528
10
-49.320983241689696
20
-12.464053466858978
10
-49.815145838712837
20
4.703439671201938
42
-0.017455064928119105
10
-49.808428633964141
20
5.7992632802096411
10
-49.014630971245538
20
25.132181417181719
42
-0.017455064928380195
10
-48.931489338458675
20
26.224867086453418
10
-48.455752764287084
20
30.499008286219855
42
0.28877496350048937
10
-62.548392222564004
20
59.568668185771465
42
-0.062791840308201549
10
-65.596249697753024
20
62.046267492497549
10
-79.502006655879683
20
76.594555026476996
42
-0.40761611820438226
10
-79.443609044489122
20
81.767414012223853
10
-68.805433003188142
20
92.405590053524548
42
-0.4142135623732362
10
-63.572842822406443
20
92.405590053523213
10
-53.828207374317934
20
82.660954605425019
42
0.050170342985545395
10
-49.131605824060493
20
78.822888454767636
10
-39.713336486660666
20
72.58636796969499
42
0.065543462815266323
10
-32.604669217628583
20
69.117482566170935
10
-22.835642058726929
20
65.84664330781429
42
0.065543462815206219
10
-15.071383145370136
20
64.335815782636956
10
-3.1128844537737743
20
63.602006625435905
42
-0.163453720250988
10
3.7913796185982807
20
60.801609683843381
42
0.18373236772070087
10
24.056268894285672
20
53.497029041678516
10
46.32922079688241
20
53.885804863280256
42
-0.40893444925792788
10
50.091462052294531
20
50.317731083596172
10
50.216939844572494
20
46.785715049220649
42
0.4142135623730871
10
52.597147709754744
20
44.568822963772135
10
65.417522179176459
20
45.024277375344013
42
-0.41421356237308871
10
69.246552223165338
20
41.457972716144234
10
69.830279669736015
20
25.026900224645139
42
0.0087268677907331085
10
69.886269245427414
20
23.97076746240009
10
71.043077261244349
20
7.5700761304070081
42
-0.41421356237309581
10
67.612576319878428
20
3.6189163903702197
10
54.793205279779222
20
2.7147135810661371
42
0.41421356237309448
0
LWPOLYLINE
5
101
100
AcDbEntity
8
0
100
AcDbPolyline
90
51
70
1
43
0.0
10
24.056268894285679
20
53.497029041678523
42
-0.18373236772070084
10
3.7913796185982882
20
60.801609683843395
42
0.16345372025098814
10
-3.1128844537737788
20
63.602006625435912
10
-15.071383145370127
20
64.335815782636942
42
-0.065543462815206149
10
-22.835642058726929
20
65.84664330781429
10
-32.604669217628562
20
69.117482566170921
42
-0.065543462815266365
10
-39.713336486660666
20
72.58636796969499
10
-49.131605824060472
20
78.822888454767636
42
-0.050170342985545374
10
-53.828207374317934
20
82.660954605425019
10
-63.572842822406443
20
92.405590053523213
42
0.4142135623732362
10
-68.805433003188156
20
92.405590053524548
10
-79.443609044489122
20
81.767414012223853
42
0.40761611820438226
10
-79.502006655879669
20
76.594555026477011
10
-65.596249697753024
20
62.046267492497549
42
0.062791840308201397
10
-62.548392222564004
20
59.568668185771486
42
-0.28877496350048937
10
-48.455752764287098
20
30.499008286219855
10
-48.931489338458675
20
26.224867086453418
42
0.017455064928380153
10
-49.014630971245545
20
25.132181417181727
10
-49.808428633964141
20
5.7992632802096411
42
0.01745506492811906
10
-49.815145838712823
20
4.7034396712019504
10
-49.320983241689696
20
-12.464053466858978
42
0.41421356237320528
10
-45.516055523985948
20
-16.056061966718076
10
-32.196713141420929
20
-15.672667561398532
42
-0.40810166234005274
10
-29.833374328163931
20
-17.857477236947055
10
-29.758555517568183
20
-19.361974586255805
42
0.41421356237311951
10
-25.879347970092169
20
-22.873633567934895
10
-12.85846607118561
20
-22.226103748734491
42
-0.41343154633656864
10
-10.447380073502313
20
-24.40289226789676
10
-10.281920113289802
20
-27.56005638505691
42
0.41421356237308971
10
-6.3933477965990058
20
-31.061342625549891
10
8.5860952247196298
20
-30.27630328190579
42
0.37072985020892157
10
12.074572243015387
20
-26.944680885021867
42
-0.36083556735842232
10
14.162999475157335
20
-24.879272492364461
10
29.759066966197601
20
-23.514793391313461
42
0.41421356237309553
10
33.122511100970783
20
-19.506396760207711
10
32.321823159607838
20
-10.35449171223754
42
-0.41421356237309703
10
34.412612756899271
20
-7.8627856983069435
10
49.493801166303413
20
-6.5433526799857145
42
0.40928717539850057
10
52.862155258838484
20
-2.5971028977108479
10
52.660731721632821
20
0.25858725617842726
42
-0.41421356237309448
10
54.793205279779222
20
2.7147135810661367
10
67.612576319878428
20
3.6189163903702197
42
0.41421356237309581
10
71.043077261244349
20
7.5700761304070081
10
69.8862692454274
20
23.970767462400183
42
-0.0087268677907331536
10
69.830279669736015
20
25.026900224645139
10
69.246552223165338
20
41.457972716144234
42
0.41421356237308871
10
65.417522179176459
20
45.024277375344013
10
52.597147709754744
20
44.568822963772135
42
-0.4142135623730871
10
50.216939844572494
20
46.785715049220649
10
50.091462052294531
20
50.317731083596172
42
0.40893444925792788
10
46.32922079688241
20
53.885804863280256
0
ENDSEC
0
SECTION
2
OBJECTS
0
DICTIONARY
5
C
100
AcDbDictionary
3
ACAD_GROUP
350
D
3
ACAD_MLINESTYLE
350
17
0
DICTIONARY
5
D
100
AcDbDictionary
0
DICTIONARY
5
1A
330
C
100
AcDbDictionary
0
DICTIONARY
5
17
100
AcDbDictionary
0
ENDSEC
0
EOF
